<svg width="42" height="42" viewBox="0 0 42 42" fill="none" xmlns="http://www.w3.org/2000/svg">
<rect width="42" height="42" rx="6" fill="white"/>
<g clip-path="url(#clip0_233_17267)">
<path d="M20.999 12.2715C19.7951 12.2715 18.816 13.2505 18.816 14.4544C18.816 15.6582 19.7951 16.6373 20.999 16.6373C22.2028 16.6373 23.1818 15.6582 23.1818 14.4544C23.1818 13.2506 22.2028 12.2715 20.999 12.2715ZM20.999 15.5464C20.397 15.5464 19.907 15.0563 19.907 14.4544C19.907 13.8525 20.397 13.3624 20.999 13.3624C21.6009 13.3624 22.0909 13.8525 22.0909 14.4544C22.0909 15.0563 21.6009 15.5464 20.999 15.5464Z" fill="#1F6FEB"/>
<path d="M32.4546 18.8182C32.7561 18.8182 33.0001 18.5757 33.0001 18.2742V16.0927C33.0001 15.9004 32.8989 15.722 32.7332 15.6239L22.0632 9.28743C22.0584 9.2842 22.0536 9.28155 22.0488 9.27889C21.3856 8.91137 20.6378 8.90022 19.9362 9.28635L9.26688 15.6239C9.18552 15.6722 9.11812 15.7407 9.07132 15.8229C9.02452 15.9051 8.99994 15.9981 9 16.0927V18.2742C9 18.5757 9.24397 18.8182 9.54547 18.8182H11.1818V28.6368C9.9785 28.6368 9 29.6152 9 30.8184V32.4546C8.99996 32.5263 9.01404 32.5972 9.04144 32.6634C9.06884 32.7296 9.10902 32.7897 9.15968 32.8404C9.21034 32.8911 9.27049 32.9312 9.33669 32.9586C9.40288 32.986 9.47383 33.0001 9.54547 33H32.4546C32.5262 33.0001 32.5972 32.986 32.6634 32.9586C32.7296 32.9312 32.7897 32.8911 32.8404 32.8404C32.891 32.7897 32.9312 32.7296 32.9586 32.6634C32.986 32.5972 33.0001 32.5263 33.0001 32.4546V30.8184C33.0001 29.6152 32.0216 28.6368 30.8182 28.6368V18.8182H32.4546ZM31.9091 30.8182V31.9091H10.0909V30.8182C10.0909 30.2168 10.5804 29.7273 11.1818 29.7273H30.8182C31.4196 29.7273 31.9091 30.2168 31.9091 30.8182ZM12.2727 28.6364V18.8182H14.4546V28.6364H12.2727ZM15.5455 28.6364V18.8182H18.8182V28.6364H15.5455ZM19.9091 28.6364V18.8182H22.0909V28.6364H19.9091ZM23.1818 28.6364V18.8182H26.4545V28.6364H23.1818ZM27.5455 28.6364V18.8182H29.7273V28.6364H27.5455ZM10.0909 17.7273V16.4015L20.4775 10.231C20.8173 10.044 21.1784 10.0446 21.514 10.2273L31.9091 16.4015V17.7273H10.0909Z" fill="#1F6FEB"/>
</g>
<defs>
<clipPath id="clip0_233_17267">
<rect width="24" height="24" fill="white" transform="translate(9 9)"/>
</clipPath>
</defs>
</svg>
