<svg width="38" height="38" viewBox="0 0 38 38" fill="none" xmlns="http://www.w3.org/2000/svg">
<rect width="38" height="38" rx="19" fill="#EBF2FD"/>
<path d="M11.0107 17.0513C12.8851 18.2696 14.0861 19.0473 15.1992 19.5259V19.9331C15.1992 20.2741 15.4763 20.5513 15.8174 20.5513C16.1538 20.5511 16.4274 20.2815 16.4346 19.9468C18.1884 20.4092 20.0323 20.4091 21.7861 19.9468C21.7934 20.2814 22.067 20.551 22.4033 20.5513C22.7444 20.5513 23.0215 20.2741 23.0215 19.9331V19.5259C24.1345 19.0474 25.3358 18.2704 27.21 17.0522C27.3433 17.961 27.3438 19.1518 27.3438 20.7573C27.3438 23.862 27.3435 25.4148 26.3789 26.3794C25.4143 27.3436 23.8614 27.3433 20.7568 27.3433H17.4639C14.3592 27.3433 12.8064 27.3437 11.8418 26.3794C10.8772 25.4148 10.877 23.862 10.877 20.7573C10.877 19.1514 10.8773 17.96 11.0107 17.0513ZM20.7568 14.1704C23.8618 14.1704 25.4143 14.1707 26.3789 15.1353C26.5803 15.3367 26.7401 15.5633 26.8662 15.8247C26.8189 15.8409 26.7724 15.8636 26.7285 15.8921C24.9994 17.016 23.9125 17.7194 23.0098 18.1704C22.9551 17.8853 22.7044 17.6694 22.4033 17.6694C22.0626 17.6697 21.7863 17.9459 21.7861 18.2866V18.6636C20.0411 19.1901 18.1796 19.1902 16.4346 18.6636V18.2866C16.4344 17.9458 16.1582 17.6696 15.8174 17.6694C15.5165 17.6694 15.2658 17.8846 15.2109 18.1694C14.3082 17.7184 13.2214 17.0161 11.4922 15.8921C11.4483 15.8635 11.4019 15.8409 11.3545 15.8247C11.4805 15.5633 11.6404 15.3366 11.8418 15.1353C12.8064 14.1707 14.3589 14.1704 17.4639 14.1704H20.7568ZM19.1104 10.2593C20.4555 10.2594 21.598 11.1196 22.0215 12.3179C22.1351 12.6393 21.9669 12.9922 21.6455 13.106C21.324 13.2196 20.9711 13.0505 20.8574 12.729C20.6028 12.0089 19.9157 11.4948 19.1104 11.4946C18.3048 11.4946 17.617 12.0087 17.3623 12.729C17.2487 13.0504 16.8966 13.2193 16.5752 13.106C16.2537 12.9923 16.0847 12.6394 16.1982 12.3179C16.6218 11.1195 17.7651 10.2593 19.1104 10.2593Z" fill="#1F6FEB"/>
</svg>
