<svg width="19" height="19" viewBox="0 0 19 19" fill="none" xmlns="http://www.w3.org/2000/svg">
<path d="M16.7501 13.1901V15.4401C16.7509 15.6489 16.7081 15.8557 16.6245 16.0471C16.5408 16.2385 16.418 16.4103 16.2641 16.5515C16.1102 16.6927 15.9285 16.8002 15.7306 16.8671C15.5328 16.934 15.3231 16.9589 15.1151 16.9401C12.8072 16.6893 10.5903 15.9007 8.64257 14.6376C6.83044 13.4861 5.29407 11.9497 4.14257 10.1376C2.87506 8.18098 2.08625 5.95332 1.84007 3.63507C1.82133 3.42767 1.84598 3.21864 1.91245 3.02129C1.97892 2.82394 2.08575 2.64259 2.22615 2.48879C2.36654 2.33499 2.53743 2.2121 2.72792 2.12796C2.9184 2.04382 3.12433 2.00027 3.33257 2.00007H5.58257C5.94655 1.99649 6.29942 2.12538 6.57539 2.36272C6.85137 2.60006 7.03163 2.92966 7.08257 3.29007C7.17754 4.01012 7.35366 4.71712 7.60757 5.39757C7.70848 5.66602 7.73032 5.95776 7.6705 6.23823C7.61068 6.51871 7.47172 6.77616 7.27007 6.98007L6.31757 7.93257C7.38524 9.81023 8.93991 11.3649 10.8176 12.4326L11.7701 11.4801C11.974 11.2784 12.2314 11.1395 12.5119 11.0796C12.7924 11.0198 13.0841 11.0417 13.3526 11.1426C14.033 11.3965 14.74 11.5726 15.4601 11.6676C15.8244 11.719 16.1571 11.9025 16.395 12.1832C16.6328 12.4639 16.7592 12.8223 16.7501 13.1901Z" stroke="#1F6FEB" stroke-width="1.125" stroke-linecap="round" stroke-linejoin="round"/>
</svg>
