<svg width="52" height="52" viewBox="0 0 52 52" fill="none" xmlns="http://www.w3.org/2000/svg">
<rect width="52" height="52" rx="12" fill="#EBF2FD"/>
<g clip-path="url(#clip0_336_47718)">
<path d="M31.3798 35.6487C31.4693 35.7352 31.5408 35.8387 31.5899 35.953C31.639 36.0674 31.6649 36.1904 31.666 36.3149C31.6671 36.4394 31.6433 36.5628 31.5962 36.6781C31.5491 36.7933 31.4795 36.8979 31.3914 36.986C31.3034 37.074 31.1987 37.1436 31.0835 37.1907C30.9683 37.2379 30.8448 37.2616 30.7204 37.2605C30.5959 37.2594 30.4729 37.2336 30.3585 37.1844C30.2441 37.1353 30.1407 37.0639 30.0542 36.9744C29.8834 36.7975 29.7889 36.5607 29.7911 36.3149C29.7932 36.0691 29.8918 35.834 30.0656 35.6601C30.2394 35.4863 30.4746 35.3877 30.7204 35.3856C30.9662 35.3835 31.203 35.478 31.3798 35.6487Z" fill="#1F6FEB"/>
<path d="M27.6298 39.3987C27.7193 39.4852 27.7908 39.5887 27.8399 39.703C27.889 39.8174 27.9149 39.9404 27.916 40.0649C27.9171 40.1894 27.8933 40.3128 27.8462 40.4281C27.7991 40.5433 27.7295 40.6479 27.6414 40.736C27.5534 40.824 27.4487 40.8936 27.3335 40.9407C27.2183 40.9879 27.0948 41.0116 26.9704 41.0105C26.8459 41.0094 26.7229 40.9836 26.6085 40.9344C26.4941 40.8853 26.3907 40.8139 26.3042 40.7244C26.1334 40.5475 26.0389 40.3107 26.0411 40.0649C26.0432 39.8191 26.1418 39.584 26.3156 39.4101C26.4894 39.2363 26.7246 39.1377 26.9704 39.1356C27.2162 39.1335 27.453 39.228 27.6298 39.3987Z" fill="#1F6FEB"/>
<path d="M34.8564 37.7994C35.0355 37.9723 35.1783 38.1792 35.2766 38.408C35.3749 38.6367 35.4266 38.8828 35.4288 39.1317C35.4309 39.3807 35.3835 39.6276 35.2892 39.858C35.1949 40.0885 35.0557 40.2978 34.8796 40.4739C34.7036 40.6499 34.4943 40.7891 34.2638 40.8834C34.0334 40.9777 33.7865 41.0251 33.5375 41.023C33.2886 41.0208 33.0425 40.9691 32.8138 40.8708C32.585 40.7725 32.3781 40.6297 32.2052 40.4506C31.8636 40.097 31.6746 39.6234 31.6789 39.1317C31.6832 38.6401 31.8804 38.1699 32.228 37.8222C32.5756 37.4746 33.0459 37.2774 33.5375 37.2731C34.0291 37.2688 34.5028 37.4578 34.8564 37.7994ZM37.5395 11C36.5008 11 35.522 11.4575 34.8583 12.2563L28.9258 19.3719C29.3627 19.5725 29.7845 19.8088 30.182 20.0919C31.2516 20.8654 32.1108 21.8941 32.6814 23.0844L39.7727 17.1725C40.5714 16.5087 41.0289 15.53 41.0289 14.4913C41.0279 13.5659 40.66 12.6788 40.0059 12.0243C39.3518 11.3699 38.4648 11.0015 37.5395 11ZM29.0945 21.62C27.9182 20.789 26.4949 20.381 25.0569 20.4628C23.6189 20.5445 22.2511 21.111 21.1764 22.07C19.8133 23.3 15.6583 27.05 11.7695 27.8975L10.9727 28.07C10.9727 28.07 11.0308 30.6875 11.8239 31.8687C13.3783 31.6944 14.6364 31.3737 15.0677 30.9425C14.1114 32.0712 13.3858 32.8888 12.8233 33.4981C13.2864 34.1169 13.8545 34.7056 14.4958 35.2719C16.7908 34.295 18.8383 32.6056 19.5077 31.9381C18.5369 33.5596 17.5304 35.1593 16.4889 36.7362C17.9738 35.8823 19.411 34.9478 20.7939 33.9369C20.2483 34.4825 19.5302 36.1981 18.9508 38.1575C19.5977 38.4706 21.4145 39.1231 21.4145 39.1231C24.2045 38.9112 29.0495 32.3394 30.6808 29.825C31.5261 28.5169 31.833 26.9327 31.5374 25.4036C31.2417 23.8744 30.3665 22.5188 29.0945 21.62Z" fill="#1F6FEB"/>
</g>
<defs>
<clipPath id="clip0_336_47718">
<rect width="30" height="30" fill="white" transform="translate(11 11)"/>
</clipPath>
</defs>
</svg>
