<svg width="24" height="24" viewBox="0 0 24 24" fill="none" xmlns="http://www.w3.org/2000/svg">
<g clip-path="url(#clip0_239_17152)">
<path d="M12 24C18.3426 24 23.4844 18.6274 23.4844 12C23.4844 5.37258 18.3426 0 12 0C5.65735 0 0.515625 5.37258 0.515625 12C0.515625 18.6274 5.65735 24 12 24Z" fill="#E88102"/>
<path d="M12 22.7344C18.2779 22.7344 23.3672 17.6451 23.3672 11.3672C23.3672 5.08926 18.2779 0 12 0C5.72208 0 0.632812 5.08926 0.632812 11.3672C0.632812 17.6451 5.72208 22.7344 12 22.7344Z" fill="#FDD835"/>
<path d="M16.5375 0.942383L1.57502 15.9002C1.07346 14.7518 0.759399 13.5049 0.665649 12.1971L12.8297 0.0283203C14.1375 0.126758 15.3844 0.44082 16.5375 0.942383ZM21.9047 5.78926L6.4219 21.2721C5.45627 20.7283 4.5844 20.0486 3.82034 19.2564L19.8938 3.1877C20.6813 3.94707 21.361 4.82363 21.9047 5.78926ZM19.4297 2.76113L3.39846 18.7924C3.15002 18.5018 2.91096 18.1971 2.69065 17.883L18.5203 2.05332C18.8344 2.27363 19.1391 2.5127 19.4297 2.76113ZM23.011 8.53144L9.16409 22.3783C8.7469 22.2705 8.33909 22.1393 7.94065 21.9893L22.6219 7.30801C22.7719 7.70644 22.9032 8.11426 23.011 8.53144Z" fill="white" fill-opacity="0.313726"/>
<path d="M23.3672 11.3672C23.3672 11.4469 23.3672 11.5219 23.3625 11.6016C23.2406 5.43281 18.2016 0.46875 12 0.46875C5.79844 0.46875 0.759375 5.43281 0.6375 11.6016C0.6375 11.5219 0.632812 11.4469 0.632812 11.3672C0.632812 5.09063 5.72344 0 12 0C18.2766 0 23.3672 5.09063 23.3672 11.3672Z" fill="white" fill-opacity="0.313726"/>
<path d="M21.2344 11.8594C21.2344 16.7766 17.2453 20.7656 12.3281 20.7656C9.56719 20.7656 7.09688 19.5047 5.46094 17.5312C7.0875 19.2891 9.4125 20.3906 12 20.3906C16.9172 20.3906 20.9062 16.4016 20.9062 11.4844C20.9062 9.32812 20.1422 7.35469 18.8672 5.8125C20.3344 7.40156 21.2344 9.525 21.2344 11.8594Z" fill="white" fill-opacity="0.313726"/>
<path d="M12 20.3906C16.9188 20.3906 20.9062 16.4032 20.9062 11.4844C20.9062 6.56559 16.9188 2.57812 12 2.57812C7.08121 2.57812 3.09375 6.56559 3.09375 11.4844C3.09375 16.4032 7.08121 20.3906 12 20.3906Z" fill="#F39E09"/>
<path d="M18.75 5.67188C17.1891 4.32656 15.1594 3.51562 12.9375 3.51562C8.02031 3.51562 4.03125 7.50469 4.03125 12.4219C4.03125 14.6438 4.84219 16.6734 6.1875 18.2344C4.29375 16.5984 3.09375 14.1844 3.09375 11.4844C3.09375 6.56719 7.08281 2.57812 12 2.57812C14.6953 2.57812 17.1141 3.77812 18.75 5.67188Z" fill="#E88102"/>
<path d="M11.4422 9.21563C11.2829 9.39844 11.1985 9.65156 11.1985 9.975C11.1985 10.2984 11.2922 10.5656 11.4797 10.7578C11.6672 10.95 11.9672 11.1328 12.3797 11.3109C12.7922 11.4844 13.1813 11.6672 13.5469 11.8547C13.9125 12.0422 14.2266 12.2578 14.4938 12.4969C14.761 12.7359 14.9672 13.0172 15.1172 13.3359C15.1735 13.4578 15.3422 13.6875 15.3422 13.6875V14.4891C15.3422 15.2484 15.1032 15.8672 14.6204 16.3453C14.1375 16.8234 13.486 17.1047 12.6563 17.1844V18.5156H11.5969V17.1703C10.6313 17.0672 9.89067 16.7391 9.37036 16.1766C8.85474 15.6141 8.59692 14.8781 8.59692 13.9594V13.2562L10.8375 13.9594C10.8375 14.4656 10.95 14.85 11.175 15.1125C11.4 15.375 11.7188 15.5062 12.1313 15.5062C12.4313 15.5062 12.6704 15.4172 12.8438 15.2344C13.0172 15.0516 13.1016 14.8078 13.1016 14.4938C13.1016 14.1422 13.0172 13.8703 12.8438 13.6688C12.6704 13.4672 12.3657 13.2797 11.9344 13.1016C11.4985 12.9234 11.1 12.7453 10.7297 12.5625C10.3594 12.3797 10.0454 12.1687 9.77817 11.9297C9.51099 11.6906 9.30942 11.4141 9.16411 11.1C9.02349 10.7859 8.95317 10.4062 8.95317 9.95625V9.21094C8.95317 9.21094 9.37036 8.42812 9.71255 8.10469C10.2188 7.61719 10.8938 7.33594 11.7329 7.25625V5.85938H12.7922V7.28906C13.6032 7.41094 14.2407 7.74375 14.7047 8.29219C15.0235 8.66719 15.3985 9.675 15.3985 9.675V10.3781H13.1485C13.1485 9.91875 13.0594 9.5625 12.8813 9.31406C12.7032 9.06562 12.45 8.94375 12.1219 8.94375C11.8313 8.93906 11.6063 9.03281 11.4422 9.21563Z" fill="#DB6704"/>
<path d="M13.1015 13.7953C13.1015 13.4437 13.0172 13.1719 12.8437 12.9703C12.6703 12.7688 12.3656 12.5813 11.9344 12.4031C11.4984 12.225 11.1 12.0469 10.7297 11.8641C10.3594 11.6813 10.0453 11.4703 9.7781 11.2313C9.51091 10.9922 9.30935 10.7156 9.16404 10.4016C9.02341 10.0875 8.9531 9.70312 8.9531 9.25781C8.9531 8.50781 9.20623 7.88906 9.71248 7.40625C10.2187 6.92344 10.8937 6.6375 11.7328 6.55781V5.15625H12.7922V6.58594C13.6031 6.70781 14.2406 7.04062 14.7047 7.58906C15.1687 8.1375 15.3984 8.83125 15.3984 9.675H13.1484C13.1484 9.21562 13.0594 8.85937 12.8812 8.61094C12.7031 8.3625 12.45 8.24063 12.1219 8.24063C11.8312 8.24063 11.6015 8.33437 11.4422 8.51719C11.2828 8.7 11.1984 8.95312 11.1984 9.27656C11.1984 9.6 11.2922 9.86719 11.4797 10.0594C11.6672 10.2516 11.9672 10.4344 12.375 10.6125C12.7875 10.7859 13.1765 10.9688 13.5422 11.1562C13.9078 11.3438 14.2219 11.5594 14.489 11.7984C14.7562 12.0375 14.9625 12.3188 15.1125 12.6375C15.2625 12.9563 15.3375 13.3406 15.3375 13.7859C15.3375 14.5453 15.0984 15.1641 14.6156 15.6422C14.1328 16.1203 13.4812 16.4016 12.6515 16.4813V17.8125H11.5922V16.4672C10.6265 16.3641 9.88591 16.0359 9.3656 15.4734C8.84998 14.9109 8.59216 14.175 8.59216 13.2562H10.8328C10.8328 13.7625 10.9453 14.1469 11.1703 14.4094C11.3953 14.6719 11.714 14.8031 12.1265 14.8031C12.4265 14.8031 12.6656 14.7141 12.839 14.5312C13.0125 14.3484 13.1015 14.1094 13.1015 13.7953Z" fill="#FDD835"/>
<path d="M9.7125 7.40625C9.98437 7.14375 10.3078 6.94219 10.6781 6.79688L9.08906 8.39062C9.21094 8.01562 9.41719 7.69219 9.7125 7.40625ZM12.3187 5.15625L11.7328 5.74219V5.15625H12.3187ZM15.0984 12.5953L11.2687 16.425C10.4625 16.2891 9.82969 15.9703 9.375 15.4781C9.07969 15.1547 8.86875 14.775 8.74219 14.3391L9.82031 13.2609H10.8422C10.8422 13.7672 10.9547 14.1516 11.1797 14.4141C11.4047 14.6766 11.7234 14.8078 12.1359 14.8078C12.4359 14.8078 12.675 14.7188 12.8484 14.5359C13.0219 14.3531 13.1063 14.1094 13.1063 13.7953C13.1063 13.4437 13.0219 13.1719 12.8484 12.9703C12.675 12.7688 12.3703 12.5813 11.9391 12.4031C11.6297 12.2766 11.3391 12.15 11.0625 12.0187L12.45 10.6313C12.8391 10.8 13.2047 10.9688 13.5516 11.1469C13.9172 11.3344 14.2312 11.55 14.4984 11.7891C14.7516 12.0234 14.9531 12.2906 15.0984 12.5953ZM15.3984 9.67031H13.4062L15.0234 8.05313C15.2719 8.5125 15.3984 9.05156 15.3984 9.67031ZM8.60156 13.2562H8.93438L8.61563 13.575C8.60625 13.4719 8.60156 13.3641 8.60156 13.2562ZM11.4797 10.0547C11.5734 10.1531 11.6953 10.2469 11.85 10.3406L10.4625 11.7281C10.2047 11.5828 9.975 11.4187 9.77813 11.2359C9.69844 11.1656 9.62812 11.0906 9.5625 11.0156L11.2078 9.37031C11.2219 9.65156 11.3156 9.88125 11.4797 10.0547ZM14.6578 7.53281L13.0922 9.09844C13.05 8.90625 12.9797 8.74219 12.8859 8.61094C12.7453 8.41406 12.5578 8.29688 12.3234 8.25469L13.725 6.85312C14.0859 7.01719 14.3953 7.24219 14.6578 7.53281ZM12.1125 17.8125L12.6562 17.2687V17.8125H12.1125ZM15.1969 14.7281C15.0797 15.075 14.8875 15.375 14.625 15.6375C14.3625 15.9 14.0484 16.1016 13.6828 16.2422L15.1969 14.7281Z" fill="white" fill-opacity="0.313726"/>
<path d="M19.4297 6.56719C13.6641 8.59219 9.03281 13.0406 6.76406 18.6891C6.56719 18.5438 6.375 18.3938 6.1875 18.2297C4.84219 16.6688 4.03125 14.6391 4.03125 12.4219C4.03125 7.50469 8.02031 3.51562 12.9375 3.51562C15.1594 3.51562 17.1891 4.32656 18.7453 5.67188C18.9937 5.95781 19.2188 6.25781 19.4297 6.56719Z" fill="white" fill-opacity="0.145098"/>
</g>
<defs>
<clipPath id="clip0_239_17152">
<rect width="24" height="24" fill="white"/>
</clipPath>
</defs>
</svg>
