<svg width="17" height="16" viewBox="0 0 17 16" fill="none" xmlns="http://www.w3.org/2000/svg">
<path d="M13.8333 6H7.83333C7.09695 6 6.5 6.59695 6.5 7.33333V13.3333C6.5 14.0697 7.09695 14.6667 7.83333 14.6667H13.8333C14.5697 14.6667 15.1667 14.0697 15.1667 13.3333V7.33333C15.1667 6.59695 14.5697 6 13.8333 6Z" stroke="white" stroke-linecap="round" stroke-linejoin="round"/>
<path d="M3.83325 10.0002H3.16659C2.81296 10.0002 2.47382 9.85969 2.22378 9.60964C1.97373 9.35959 1.83325 9.02045 1.83325 8.66683V2.66683C1.83325 2.31321 1.97373 1.97407 2.22378 1.72402C2.47382 1.47397 2.81296 1.3335 3.16659 1.3335H9.16659C9.52021 1.3335 9.85935 1.47397 10.1094 1.72402C10.3594 1.97407 10.4999 2.31321 10.4999 2.66683V3.3335" stroke="white" stroke-linecap="round" stroke-linejoin="round"/>
</svg>
