<svg width="20" height="20" viewBox="0 0 20 20" fill="none" xmlns="http://www.w3.org/2000/svg">
<path d="M1.66699 10H4.16699" stroke="#1F6FEB" stroke-width="1.25" stroke-linecap="round" stroke-linejoin="round"/>
<path d="M15.833 10H18.333" stroke="#1F6FEB" stroke-width="1.25" stroke-linecap="round" stroke-linejoin="round"/>
<path d="M10 1.66669V4.16669" stroke="#1F6FEB" stroke-width="1.25" stroke-linecap="round" stroke-linejoin="round"/>
<path d="M10 15.8333V18.3333" stroke="#1F6FEB" stroke-width="1.25" stroke-linecap="round" stroke-linejoin="round"/>
<path d="M10.0003 15.8334C13.222 15.8334 15.8337 13.2217 15.8337 10C15.8337 6.77836 13.222 4.16669 10.0003 4.16669C6.77866 4.16669 4.16699 6.77836 4.16699 10C4.16699 13.2217 6.77866 15.8334 10.0003 15.8334Z" stroke="#1F6FEB" stroke-width="1.25" stroke-linecap="round" stroke-linejoin="round"/>
<path d="M10 12.5C11.3807 12.5 12.5 11.3807 12.5 10C12.5 8.61929 11.3807 7.5 10 7.5C8.61929 7.5 7.5 8.61929 7.5 10C7.5 11.3807 8.61929 12.5 10 12.5Z" stroke="#1F6FEB" stroke-width="1.25" stroke-linecap="round" stroke-linejoin="round"/>
</svg>
