<svg width="20" height="20" viewBox="0 0 20 20" fill="none" xmlns="http://www.w3.org/2000/svg">
<path d="M16.6667 15C16.4167 15 16.25 14.9167 16.0833 14.75L10.5 9.08333L8.5 11.0833C8.16667 11.4167 7.66667 11.4167 7.33333 11.0833L2.75 6.41667C2.41667 6.08333 2.41667 5.58333 2.75 5.25C3.08333 4.91667 3.58333 4.91667 3.91667 5.25L7.91667 9.33333L9.91667 7.33333C10.25 7 10.75 7 11.0833 7.33333L17.25 13.5833C17.5833 13.9167 17.5833 14.4167 17.25 14.75C17.0833 14.9167 16.9167 15 16.6667 15Z" fill="#EF4444"/>
<path d="M16.6667 15.0002H11.6667C11.1667 15.0002 10.8334 14.6668 10.8334 14.1668C10.8334 13.6668 11.1667 13.3335 11.6667 13.3335H15.8334V9.16683C15.8334 8.66683 16.1667 8.3335 16.6667 8.3335C17.1667 8.3335 17.5 8.66683 17.5 9.16683V14.1668C17.5 14.6668 17.1667 15.0002 16.6667 15.0002Z" fill="#EF4444"/>
</svg>
