<svg width="34" height="34" viewBox="0 0 34 34" fill="none" xmlns="http://www.w3.org/2000/svg">
<rect width="34" height="34" rx="17" fill="white"/>
<path d="M20.75 10.2497C20.947 10.0528 21.1808 9.8965 21.4382 9.78989C21.6956 9.68329 21.9714 9.62842 22.25 9.62842C22.5286 9.62842 22.8044 9.68329 23.0618 9.78989C23.3192 9.8965 23.553 10.0528 23.75 10.2497C23.947 10.4467 24.1032 10.6806 24.2098 10.9379C24.3165 11.1953 24.3713 11.4712 24.3713 11.7497C24.3713 12.0283 24.3165 12.3042 24.2098 12.5615C24.1032 12.8189 23.947 13.0528 23.75 13.2497L13.625 23.3747L9.5 24.4997L10.625 20.3747L20.75 10.2497Z" stroke="#111827" stroke-width="1.125" stroke-linecap="round" stroke-linejoin="round"/>
</svg>
