<svg width="44" height="44" viewBox="0 0 44 44" fill="none" xmlns="http://www.w3.org/2000/svg">
<rect width="44" height="44" rx="22" fill="#EBF2FD"/>
<path d="M32.042 29.4244C32.0329 28.754 31.7613 28.1139 31.2856 27.6414L31.2799 27.6358L21.4721 18.2219C21.4635 18.1164 21.4403 18.0125 21.4032 17.9133L21.4012 17.9073C21.3263 17.7137 21.2237 17.532 21.0967 17.3679C21.0739 17.3312 21.0479 17.2966 21.0189 17.2646L20.9938 17.1945C20.6593 16.2696 20.4779 15.6788 20.9416 15.2152C21.2215 14.9973 21.5728 14.8919 21.9264 14.9195C22.0888 14.9074 22.2568 14.8948 22.4285 14.8669C22.546 14.8608 22.6581 14.8163 22.7478 14.7402C22.8374 14.6641 22.8995 14.5606 22.9246 14.4458C22.9906 14.0963 22.6816 13.8124 22.3374 13.5577C22.1738 13.4374 22.0046 13.3248 21.8304 13.2204L21.8223 13.2163C21.5247 13.0537 21.19 12.9709 20.8509 12.9758C20.2356 13.0018 19.6352 13.1733 19.0991 13.4763C18.6363 13.7205 18.1982 14.0089 17.7911 14.3376C17.6899 14.3042 17.5842 14.2864 17.4776 14.285C17.3923 14.2823 17.3072 14.2968 17.2276 14.3278C17.148 14.3587 17.0755 14.4055 17.0144 14.4652L14.5936 16.886C14.4868 17.0073 14.4211 17.1593 14.406 17.3202C14.3908 17.4811 14.427 17.6427 14.5094 17.7817C14.6423 18.0799 14.831 18.3498 15.0654 18.577L15.0803 18.592C14.9547 18.6813 14.8044 18.7292 14.6503 18.7289C14.5552 18.7293 14.4609 18.7108 14.373 18.6745C14.285 18.6382 14.2052 18.5849 14.138 18.5175C14.0655 18.4451 13.9672 18.4044 13.8647 18.4044C13.7622 18.4044 13.6639 18.4451 13.5913 18.5175L12.5271 19.5817C12.3259 19.7835 12.2129 20.0568 12.2129 20.3418C12.2129 20.6268 12.3259 20.9001 12.5271 21.1019L14.5077 23.0825C14.7096 23.2835 14.9829 23.3964 15.2678 23.3964C15.5527 23.3964 15.826 23.2835 16.0279 23.0825L17.0921 22.0187C17.1646 21.9462 17.2053 21.8479 17.2053 21.7454C17.2053 21.6429 17.1646 21.5445 17.0921 21.472C16.9707 21.3489 16.8967 21.1868 16.883 21.0145C16.8694 20.8421 16.9171 20.6704 17.0176 20.5297L17.182 20.6937C17.4967 21.0553 17.9341 21.2875 18.4098 21.3457C18.4615 21.3459 18.5131 21.3407 18.5637 21.3303L27.7613 31.1471L27.7702 31.1564C28.0085 31.3965 28.292 31.587 28.6044 31.7169C28.9168 31.8467 29.2518 31.9133 29.5901 31.9128C29.9158 31.9151 30.2387 31.852 30.5396 31.7273C30.8405 31.6026 31.1134 31.4187 31.342 31.1867C31.5706 30.9546 31.7503 30.679 31.8705 30.3762C31.9906 30.0735 32.0488 29.7497 32.0416 29.424L32.042 29.4244Z" fill="#1F6FEB"/>
<path d="M19.1614 22.7229L17.6793 24.2051C16.9801 24.0049 16.239 24.0026 15.5386 24.1985C14.8381 24.3943 14.2058 24.7807 13.7118 25.3145C13.2178 25.8483 12.8816 26.5087 12.7406 27.2222C12.5996 27.9358 12.6593 28.6744 12.913 29.356L13.0953 29.8464C13.1179 29.9071 13.1554 29.9611 13.2043 30.0036C13.2532 30.046 13.312 30.0754 13.3753 30.0892C13.4386 30.103 13.5043 30.1007 13.5665 30.0825C13.6286 30.0642 13.6852 30.0307 13.731 29.9849L15.8647 27.8512L16.5726 28.0067L16.7276 28.7146L14.594 30.8487C14.5482 30.8945 14.5147 30.9511 14.4965 31.0133C14.4783 31.0754 14.476 31.1412 14.4898 31.2045C14.5036 31.2678 14.5331 31.3266 14.5756 31.3755C14.6181 31.4244 14.6721 31.4619 14.7329 31.4844L15.2229 31.6666C15.9046 31.9206 16.6434 31.9805 17.357 31.8396C18.0707 31.6986 18.7313 31.3624 19.2653 30.8684C19.7993 30.3743 20.1857 29.7418 20.3815 29.0412C20.5774 28.3406 20.575 27.5993 20.3746 26.9L21.7685 25.5058L19.1614 22.7229ZM25.7042 21.5701L26.5748 20.6998C27.274 20.9 28.0151 20.9023 28.7155 20.7064C29.4159 20.5106 30.0483 20.1242 30.5423 19.5904C31.0362 19.0565 31.3724 18.3961 31.5135 17.6826C31.6545 16.9691 31.5948 16.2305 31.341 15.5489L31.1588 15.0585C31.1362 14.9978 31.0987 14.9438 31.0498 14.9013C31.0008 14.8589 30.942 14.8294 30.8787 14.8157C30.8155 14.8019 30.7497 14.8042 30.6876 14.8224C30.6254 14.8407 30.5689 14.8742 30.523 14.92L28.3894 17.0537L27.6815 16.8982L27.526 16.1903L29.6601 14.0566C29.7059 14.0108 29.7394 13.9542 29.7576 13.892C29.7758 13.8299 29.7781 13.7641 29.7643 13.7008C29.7504 13.6375 29.7209 13.5787 29.6785 13.5298C29.636 13.4809 29.5819 13.4434 29.5212 13.4209L29.0308 13.2386C28.3492 12.9848 27.6105 12.925 26.8969 13.066C26.1833 13.207 25.5229 13.5431 24.989 14.0371C24.4551 14.5311 24.0687 15.1635 23.8728 15.864C23.6769 16.5645 23.6792 17.3056 23.8795 18.0049L22.9537 18.9302L25.7042 21.5701Z" fill="#1F6FEB"/>
</svg>
