<svg width="161" height="160" viewBox="0 0 161 160" fill="none" xmlns="http://www.w3.org/2000/svg">
<path d="M160.5 79.9992C160.5 90.7981 158.385 101.276 154.212 111.14C150.182 120.666 144.414 129.222 137.069 136.569C129.722 143.914 121.168 149.682 111.641 153.713C101.776 157.885 91.2999 160 80.501 160C69.7021 160 59.2243 157.885 49.3605 153.713C39.834 149.682 31.2783 143.915 23.9312 136.569C16.5856 129.222 10.8181 120.666 6.78765 111.14C2.61544 101.276 0.5 90.7981 0.5 79.9992C0.5 69.2003 2.61544 58.7243 6.78765 48.8589C10.8179 39.3323 16.5856 30.7767 23.9312 23.4312C31.2783 16.0858 39.8342 10.3162 49.3605 6.28765C59.2243 2.11543 69.7019 1.52588e-05 80.501 1.52588e-05C91.2999 1.52588e-05 101.776 2.11543 111.641 6.28765C121.168 10.3162 129.722 16.0857 137.069 23.4312C144.414 30.7765 150.182 39.3323 154.212 48.8589C158.385 58.7243 160.5 69.2003 160.5 79.9992Z" fill="url(#paint0_linear_47_67793)"/>
<path d="M126.42 49.1129C124.586 47.1944 122.001 46 119.136 46H42.5784C39.7142 46 37.1302 47.1944 35.2952 49.1129C33.5632 50.9231 32.5 53.3774 32.5 56.0785V104.282C32.5 106.983 33.563 109.438 35.2969 111.248C37.1302 113.168 39.7142 114.363 42.5784 114.363H119.136C122.001 114.363 124.585 113.168 126.42 111.25C128.152 109.439 129.215 106.985 129.215 104.282V56.0785C129.215 53.3774 128.154 50.9231 126.42 49.1129Z" fill="#EFEFEF"/>
<path d="M126.419 49.1129L90.9435 80.1804L84.9682 85.414C82.615 87.4745 79.0993 87.4745 76.7462 85.414L70.7709 80.1804L35.2949 49.1129C37.1299 47.1944 39.7139 46 42.5782 46H119.136C122 46.0002 124.586 47.1946 126.419 49.1129Z" fill="white"/>
<path d="M126.42 111.25C124.585 113.168 122.001 114.363 119.137 114.363H42.5785C39.7142 114.363 37.1302 113.168 35.2969 111.248L70.771 80.1806L76.7463 85.4142C79.0995 87.4747 82.6152 87.4747 84.9683 85.4142L90.9437 80.1806L126.42 111.25Z" fill="#DCDEE2"/>
<defs>
<linearGradient id="paint0_linear_47_67793" x1="0.500008" y1="-7.25042e-06" x2="235" y2="259" gradientUnits="userSpaceOnUse">
<stop offset="0.169192" stop-color="#1F6FEB"/>
<stop offset="1" stop-color="#1F6ADE"/>
</linearGradient>
</defs>
</svg>
