<svg width="52" height="52" viewBox="0 0 52 52" fill="none" xmlns="http://www.w3.org/2000/svg">
<rect width="52" height="52" rx="12" fill="#EBF2FD"/>
<path d="M38.9998 35.5675C38.9878 34.6885 38.6317 33.8492 38.0079 33.2297L38.0005 33.2222L25.1405 20.8789C25.1293 20.7405 25.0989 20.6044 25.0503 20.4743L25.0476 20.4664C24.9493 20.2126 24.8148 19.9743 24.6483 19.7591C24.6184 19.711 24.5843 19.6657 24.5464 19.6237L24.5134 19.5319C24.0749 18.3191 23.837 17.5445 24.445 16.9365C24.812 16.6509 25.2726 16.5126 25.7363 16.5489C25.9492 16.533 26.1695 16.5165 26.3947 16.4799C26.5486 16.4719 26.6957 16.4135 26.8132 16.3137C26.9308 16.214 27.0122 16.0783 27.0451 15.9277C27.1316 15.4694 26.7265 15.0972 26.2752 14.7633C26.0607 14.6055 25.8388 14.4579 25.6104 14.321L25.5998 14.3157C25.2095 14.1025 24.7707 13.9938 24.326 14.0003C23.5193 14.0344 22.7321 14.2593 22.0291 14.6565C21.4222 14.9767 20.8479 15.3549 20.314 15.7859C20.1814 15.742 20.0428 15.7188 19.9031 15.7169C19.7911 15.7133 19.6796 15.7324 19.5752 15.773C19.4709 15.8136 19.3758 15.8749 19.2957 15.9532L16.1216 19.1273C15.9815 19.2863 15.8954 19.4856 15.8755 19.6966C15.8557 19.9076 15.9032 20.1194 16.0111 20.3018C16.1854 20.6927 16.4328 21.0467 16.7401 21.3446L16.7598 21.3642C16.5951 21.4813 16.398 21.544 16.1959 21.5437C16.0712 21.5442 15.9476 21.52 15.8323 21.4724C15.717 21.4248 15.6123 21.3548 15.5242 21.2665C15.4291 21.1715 15.3002 21.1182 15.1658 21.1182C15.0314 21.1182 14.9025 21.1715 14.8074 21.2665L13.412 22.6619C13.1482 22.9265 13 23.2849 13 23.6585C13 24.0322 13.1482 24.3906 13.412 24.6551L16.009 27.2521C16.2737 27.5157 16.632 27.6637 17.0056 27.6637C17.3792 27.6637 17.7375 27.5157 18.0022 27.2521L19.3976 25.8572C19.4926 25.7622 19.546 25.6332 19.546 25.4988C19.546 25.3644 19.4926 25.2355 19.3976 25.1404C19.2384 24.979 19.1413 24.7665 19.1235 24.5405C19.1056 24.3144 19.1681 24.0894 19.2999 23.9049L19.5155 24.1199C19.9281 24.594 20.5015 24.8985 21.1254 24.9748C21.1931 24.975 21.2607 24.9683 21.3271 24.9546L33.3869 37.8262L33.3986 37.8385C33.711 38.1533 34.0828 38.4031 34.4924 38.5733C34.9019 38.7436 35.3412 38.8309 35.7848 38.8303C36.2119 38.8333 36.6352 38.7506 37.0298 38.5871C37.4244 38.4235 37.7821 38.1825 38.0818 37.8782C38.3816 37.5739 38.6172 37.2125 38.7748 36.8156C38.9324 36.4186 39.0087 35.994 38.9992 35.567L38.9998 35.5675Z" fill="#1F6FEB"/>
<path d="M22.1124 26.7806L20.169 28.7239C19.2522 28.4614 18.2806 28.4584 17.3622 28.7153C16.4438 28.9721 15.6146 29.4786 14.9669 30.1786C14.3192 30.8785 13.8784 31.7445 13.6935 32.68C13.5086 33.6156 13.5869 34.5841 13.9196 35.4778L14.1585 36.1208C14.1882 36.2003 14.2373 36.2712 14.3015 36.3268C14.3657 36.3825 14.4428 36.4211 14.5257 36.4392C14.6087 36.4572 14.6949 36.4542 14.7764 36.4303C14.8579 36.4064 14.9321 36.3624 14.9921 36.3024L17.7898 33.5047L18.7179 33.7086L18.9213 34.6367L16.1236 37.4349C16.0636 37.495 16.0196 37.5692 15.9958 37.6507C15.9719 37.7323 15.9689 37.8185 15.987 37.9015C16.0052 37.9844 16.0438 38.0615 16.0995 38.1257C16.1552 38.1898 16.2261 38.2389 16.3057 38.2685L16.9482 38.5075C17.842 38.8405 18.8107 38.919 19.7465 38.7342C20.6823 38.5494 21.5485 38.1086 22.2486 37.4608C22.9488 36.813 23.4554 35.9836 23.7122 35.065C23.969 34.1463 23.9659 33.1744 23.7031 32.2575L25.5307 30.4294L22.1124 26.7806ZM30.6912 25.2689L31.8327 24.1279C32.7495 24.3904 33.7212 24.3934 34.6396 24.1365C35.558 23.8797 36.3872 23.3732 37.0349 22.6732C37.6825 21.9732 38.1234 21.1073 38.3083 20.1718C38.4932 19.2362 38.4149 18.2677 38.0822 17.374L37.8433 16.731C37.8136 16.6514 37.7644 16.5806 37.7003 16.5249C37.6361 16.4693 37.559 16.4307 37.476 16.4126C37.393 16.3945 37.3069 16.3976 37.2254 16.4215C37.1439 16.4454 37.0697 16.4894 37.0096 16.5494L34.212 19.3471L33.2839 19.1432L33.08 18.2151L35.8782 15.4174C35.9382 15.3573 35.9821 15.2831 36.006 15.2016C36.0299 15.1201 36.0329 15.0338 36.0147 14.9509C35.9966 14.8679 35.9579 14.7908 35.9022 14.7266C35.8466 14.6625 35.7756 14.6134 35.696 14.5838L35.053 14.3449C34.1593 14.012 33.1907 13.9336 32.2551 14.1185C31.3194 14.3033 30.4534 14.7441 29.7534 15.3918C29.0534 16.0395 28.5467 16.8687 28.2899 17.7872C28.0331 18.7057 28.0361 19.6774 28.2986 20.5943L27.0849 21.8076L30.6912 25.2689Z" fill="#1F6FEB"/>
</svg>
