<svg width="42" height="42" viewBox="0 0 42 42" fill="none" xmlns="http://www.w3.org/2000/svg">
<path d="M12 19.4167C12 16.2191 12 14.6203 12.3775 14.0824C12.755 13.5445 14.2583 13.03 17.2649 12.0008L17.8377 11.8047C19.405 11.2682 20.1886 11 21 11C21.8114 11 22.595 11.2682 24.1623 11.8047L24.7351 12.0008C27.7417 13.03 29.245 13.5445 29.6225 14.0824C30 14.6203 30 16.2191 30 19.4167C30 19.8996 30 20.4234 30 20.9914C30 26.6294 25.761 29.3655 23.1014 30.5273C22.38 30.8424 22.0193 31 21 31C19.9807 31 19.62 30.8424 18.8986 30.5273C16.239 29.3655 12 26.6294 12 20.9914C12 20.4234 12 19.8996 12 19.4167Z" stroke="#111827" stroke-width="1.5"/>
<path d="M21 17V21" stroke="#111827" stroke-width="1.5" stroke-linecap="round"/>
<circle cx="21" cy="24" r="1" fill="#111827"/>
</svg>
