<svg width="52" height="52" viewBox="0 0 52 52" fill="none" xmlns="http://www.w3.org/2000/svg">
<rect width="52" height="52" rx="12" fill="#EBF2FD"/>
<g clip-path="url(#clip0_336_47761)">
<path d="M28.2852 29.8672H27.2642L27.4019 28.4898C27.4141 28.3676 27.4006 28.2442 27.3622 28.1276C27.3238 28.0109 27.2614 27.9036 27.179 27.8126C27.0966 27.7215 26.9961 27.6488 26.8838 27.599C26.7716 27.5492 26.6501 27.5234 26.5273 27.5234H13.6367C13.5139 27.5235 13.3925 27.5492 13.2803 27.599C13.168 27.6488 13.0675 27.7216 12.9851 27.8126C12.9027 27.9037 12.8403 28.011 12.8019 28.1276C12.7635 28.2442 12.7499 28.3676 12.7621 28.4898L12.8999 29.8672H11.8789C11.3935 29.8672 11 30.2607 11 30.7461C11 31.2315 11.3935 31.625 11.8789 31.625H13.0757L13.3687 34.5547H26.7954L27.0884 31.625H28.2852C28.7705 31.625 29.1641 31.2315 29.1641 30.7461C29.1641 30.2607 28.7705 29.8672 28.2852 29.8672Z" fill="#1F6FEB"/>
<path d="M15.9805 25.7656C17.4367 25.7656 18.6172 24.5851 18.6172 23.1289C18.6172 21.6727 17.4367 20.4922 15.9805 20.4922C14.5242 20.4922 13.3438 21.6727 13.3438 23.1289C13.3438 24.5851 14.5242 25.7656 15.9805 25.7656Z" fill="#1F6FEB"/>
<path d="M24.7695 22.25C26.2258 22.25 27.4062 21.0695 27.4062 19.6133C27.4062 18.1571 26.2258 16.9766 24.7695 16.9766C23.3133 16.9766 22.1328 18.1571 22.1328 19.6133C22.1328 21.0695 23.3133 22.25 24.7695 22.25Z" fill="#1F6FEB"/>
<path d="M23.0117 25.7656C23.4971 25.7656 23.8906 25.3721 23.8906 24.8867C23.8906 24.4013 23.4971 24.0078 23.0117 24.0078C22.5263 24.0078 22.1328 24.4013 22.1328 24.8867C22.1328 25.3721 22.5263 25.7656 23.0117 25.7656Z" fill="#1F6FEB"/>
<path d="M36.019 28.6953C33.2728 28.6953 31.0386 30.9296 31.0386 33.6758V36.2506C31.0386 37.4586 30.6844 38.6284 30.0143 39.6335C29.9261 39.7659 29.8754 39.9197 29.8678 40.0786C29.8601 40.2375 29.8957 40.3955 29.9708 40.5357C30.0458 40.676 30.1575 40.7932 30.294 40.875C30.4305 40.9567 30.5865 40.9999 30.7456 40.9999H33.5578C34.0153 40.8641 34.4165 40.584 34.7017 40.2014C34.9869 39.8188 35.1407 39.3543 35.1401 38.8771V34.8477C35.1401 34.3623 35.5337 33.9688 36.019 33.9688C36.5044 33.9688 36.8979 34.3623 36.8979 34.8477V38.8771C36.8986 39.6286 36.6857 40.3648 36.2841 41H36.605C39.0281 41 40.9995 39.0286 40.9995 36.6055V33.6758C40.9995 30.9296 38.7653 28.6953 36.019 28.6953ZM37.7769 27.1706V12.7578C37.7769 11.787 36.9899 11 36.019 11C35.0482 11 34.2612 11.787 34.2612 12.7578V27.1706C34.8219 27.0189 35.4111 26.9375 36.019 26.9375C36.627 26.9375 37.2162 27.0189 37.7769 27.1706ZM13.7225 38.098C13.7998 38.8941 14.1714 39.6327 14.7644 40.1694C15.3575 40.7061 16.1294 41.0023 16.9292 41H23.2339C24.0337 41.0023 24.8056 40.7061 25.3987 40.1694C25.9917 39.6327 26.3633 38.8941 26.4406 38.098L26.6191 36.3125H13.5439L13.7225 38.098Z" fill="#1F6FEB"/>
</g>
<defs>
<clipPath id="clip0_336_47761">
<rect width="30" height="30" fill="white" transform="translate(11 11)"/>
</clipPath>
</defs>
</svg>
