<svg width="42" height="42" viewBox="0 0 42 42" fill="none" xmlns="http://www.w3.org/2000/svg">
<path d="M26 29.3804C26.5703 28.8734 27.4297 28.8734 28 29.3804C28.3875 29.7248 29 29.4497 29 28.9313V13.8293C29 13.3108 28.3875 13.0358 28 13.3802C27.4297 13.8871 26.5703 13.8871 26 13.3802C25.4297 12.8733 24.5703 12.8733 24 13.3802C23.4297 13.8871 22.5703 13.8871 22 13.3802C21.4297 12.8733 20.5703 12.8733 20 13.3802C19.4297 13.8871 18.5703 13.8871 18 13.3802C17.4297 12.8733 16.5703 12.8733 16 13.3802C15.4297 13.8871 14.5703 13.8871 14 13.3802C13.6125 13.0358 13 13.3108 13 13.8293V28.9313C13 29.4497 13.6125 29.7248 14 29.3804C14.5703 28.8734 15.4297 28.8734 16 29.3804C16.5703 29.8873 17.4297 29.8873 18 29.3804C18.5703 28.8734 19.4297 28.8734 20 29.3804C20.5703 29.8873 21.4297 29.8873 22 29.3804C22.5703 28.8734 23.4297 28.8734 24 29.3804C24.5703 29.8873 25.4297 29.8873 26 29.3804Z" stroke="#111827" stroke-width="1.5"/>
<path d="M17 24.4917H25" stroke="#111827" stroke-width="1.5" stroke-linecap="round"/>
<path d="M17 21.3804H25" stroke="#111827" stroke-width="1.5" stroke-linecap="round"/>
<path d="M17 18.269H25" stroke="#111827" stroke-width="1.5" stroke-linecap="round"/>
</svg>
