<svg width="42" height="42" viewBox="0 0 42 42" fill="none" xmlns="http://www.w3.org/2000/svg">
<path d="M11 23C11 19.2288 11 17.3431 12.1716 16.1716C13.3431 15 15.2288 15 19 15H23C26.7712 15 28.6569 15 29.8284 16.1716C31 17.3431 31 19.2288 31 23C31 26.7712 31 28.6569 29.8284 29.8284C28.6569 31 26.7712 31 23 31H19C15.2288 31 13.3431 31 12.1716 29.8284C11 28.6569 11 26.7712 11 23Z" stroke="#111827" stroke-width="1.5"/>
<path d="M30.6618 17.7197C27.6519 19.6761 26.147 20.6543 24.5605 21.1472C22.2416 21.8677 19.7586 21.8677 17.4396 21.1472C15.8531 20.6543 14.3482 19.6761 11.3384 17.7197" stroke="#111827" stroke-width="1.5" stroke-linecap="round"/>
<path d="M17 20V22" stroke="#111827" stroke-width="1.5" stroke-linecap="round"/>
<path d="M25 20V22" stroke="#111827" stroke-width="1.5" stroke-linecap="round"/>
<path d="M18.1707 13C18.5825 11.8348 19.6937 11 20.9999 11C22.3062 11 23.4174 11.8348 23.8292 13" stroke="#111827" stroke-width="1.5" stroke-linecap="round"/>
</svg>
