<svg width="18" height="19" viewBox="0 0 18 19" fill="none" xmlns="http://www.w3.org/2000/svg">
<path d="M1.5 9.5C1.5 6.67157 1.5 5.25736 2.37868 4.37868C3.25736 3.5 4.67157 3.5 7.5 3.5H10.5C13.3284 3.5 14.7426 3.5 15.6213 4.37868C16.5 5.25736 16.5 6.67157 16.5 9.5C16.5 12.3284 16.5 13.7426 15.6213 14.6213C14.7426 15.5 13.3284 15.5 10.5 15.5H7.5C4.67157 15.5 3.25736 15.5 2.37868 14.6213C1.5 13.7426 1.5 12.3284 1.5 9.5Z" stroke="#374151" stroke-width="1.125"/>
<path d="M4.5 6.5L6.11917 7.84931C7.49665 8.99721 8.18539 9.57116 9 9.57116C9.81461 9.57116 10.5034 8.99721 11.8808 7.84931L13.5 6.5" stroke="#374151" stroke-width="1.125" stroke-linecap="round"/>
</svg>
