<svg width="45" height="37" viewBox="0 0 45 37" fill="none" xmlns="http://www.w3.org/2000/svg">
<path d="M16.4164 3.51514H28.5836V25.3776H16.4164V3.51514Z" fill="#FF5F00"/>
<path d="M8.18925 36.3819V34.0644C8.18925 33.1759 7.64837 32.5966 6.72127 32.5966C6.2578 32.5966 5.75563 32.7511 5.40794 33.2533C5.13768 32.8284 4.75146 32.5966 4.17204 32.5966C3.78564 32.5966 3.3996 32.7124 3.09045 33.1373V32.6739H2.2793V36.3819H3.09045V34.3347C3.09045 33.6782 3.43813 33.3691 3.97902 33.3691C4.51955 33.3691 4.79017 33.7167 4.79017 34.3347V36.3819H5.60132V34.3347C5.60132 33.6782 5.98736 33.3691 6.48953 33.3691C7.03042 33.3691 7.30068 33.7167 7.30068 34.3347V36.3819H8.18925ZM20.2018 32.6739H18.8887V31.5537H18.0775V32.6739H17.3436V33.4076H18.0774V35.1073C18.0774 35.9572 18.4251 36.4592 19.3522 36.4592C19.6998 36.4592 20.0859 36.3434 20.3565 36.1889L20.1246 35.4935C19.8929 35.648 19.6226 35.6867 19.4294 35.6867C19.0432 35.6867 18.8887 35.455 18.8887 35.0686V33.4076H20.2018V32.6739ZM27.0774 32.5964C26.614 32.5964 26.305 32.8284 26.1118 33.1373V32.6739H25.3006V36.3819H26.1118V34.2962C26.1118 33.6782 26.3821 33.3305 26.8842 33.3305C27.0387 33.3305 27.2319 33.3692 27.3864 33.4078L27.6181 32.6353C27.4637 32.5966 27.2319 32.5966 27.0774 32.5966V32.5964ZM16.687 32.9828C16.3006 32.7124 15.7599 32.5966 15.1805 32.5966C14.2535 32.5966 13.6356 33.0601 13.6356 33.794C13.6356 34.4121 14.099 34.7596 14.9102 34.8756L15.2964 34.9143C15.7213 34.9914 15.9531 35.1073 15.9531 35.3005C15.9531 35.5708 15.6441 35.764 15.1032 35.764C14.5625 35.764 14.1376 35.5708 13.8671 35.3778L13.4809 35.9957C13.9058 36.3047 14.4853 36.4592 15.0645 36.4592C16.1461 36.4592 16.7642 35.9572 16.7642 35.2618C16.7642 34.6051 16.262 34.2575 15.4894 34.1417L15.1032 34.103C14.7555 34.0643 14.4853 33.9872 14.4853 33.7555C14.4853 33.485 14.7555 33.3305 15.1805 33.3305C15.6441 33.3305 16.1076 33.5236 16.3393 33.6395L16.687 32.9828ZM38.2405 32.5966C37.7769 32.5966 37.4679 32.8284 37.2747 33.1373V32.6739H36.4635V36.3819H37.2747V34.2962C37.2747 33.6782 37.5451 33.3305 38.0471 33.3305C38.2018 33.3305 38.395 33.3692 38.5495 33.4078L38.7812 32.6353C38.6267 32.5966 38.395 32.5966 38.2405 32.5966ZM27.8886 34.5279C27.8886 35.648 28.661 36.4592 29.8586 36.4592C30.3993 36.4592 30.7855 36.3434 31.1717 36.0344L30.7855 35.3778C30.4765 35.6095 30.1675 35.7253 29.8199 35.7253C29.1632 35.7253 28.6997 35.2618 28.6997 34.5279C28.6997 33.8327 29.1632 33.3691 29.8199 33.3305C30.1675 33.3305 30.4765 33.4463 30.7855 33.6782L31.1717 33.0216C30.7855 32.7124 30.3993 32.5966 29.8586 32.5966C28.661 32.5966 27.8886 33.4078 27.8886 34.5279ZM35.3821 34.5279V32.6739H34.571V33.1373C34.3005 32.7898 33.9143 32.5966 33.4121 32.5966C32.3693 32.5966 31.5581 33.4078 31.5581 34.5279C31.5581 35.648 32.3693 36.4592 33.4121 36.4592C33.9529 36.4592 34.3392 36.2662 34.571 35.9185V36.3819H35.3821V34.5279ZM32.4078 34.5279C32.4078 33.8712 32.8327 33.3305 33.5279 33.3305C34.1846 33.3305 34.6482 33.8327 34.6482 34.5279C34.6482 35.1846 34.1846 35.7253 33.5279 35.7253C32.8327 35.6866 32.4078 35.1846 32.4078 34.5279ZM22.7127 32.5966C21.6311 32.5966 20.8585 33.3691 20.8585 34.5279C20.8585 35.6867 21.6309 36.4592 22.7512 36.4592C23.292 36.4592 23.8328 36.3047 24.2578 35.9572L23.8714 35.3778C23.5624 35.6095 23.1762 35.764 22.79 35.764C22.2878 35.764 21.7856 35.5322 21.6697 34.8754H24.4123V34.5666C24.451 33.3691 23.7556 32.5966 22.7125 32.5966H22.7127ZM22.7127 33.2918C23.2147 33.2918 23.5626 33.601 23.6396 34.1804H21.7084C21.7856 33.6782 22.1333 33.2918 22.7127 33.2918ZM42.837 34.5279V31.2061H42.0258V33.1373C41.7554 32.7898 41.3692 32.5966 40.867 32.5966C39.8241 32.5966 39.013 33.4078 39.013 34.5279C39.013 35.648 39.8241 36.4592 40.867 36.4592C41.4079 36.4592 41.7941 36.2662 42.0258 35.9185V36.3819H42.837V34.5279ZM39.8628 34.5279C39.8628 33.8712 40.2876 33.3305 40.9829 33.3305C41.6396 33.3305 42.1031 33.8327 42.1031 34.5279C42.1031 35.1846 41.6396 35.7253 40.9829 35.7253C40.2876 35.6866 39.8628 35.1846 39.8628 34.5279ZM12.747 34.5279V32.6739H11.9359V33.1373C11.6654 32.7898 11.2792 32.5966 10.777 32.5966C9.73413 32.5966 8.92298 33.4078 8.92298 34.5279C8.92298 35.648 9.73413 36.4592 10.777 36.4592C11.3179 36.4592 11.7041 36.2662 11.9359 35.9185V36.3819H12.747V34.5279ZM9.73413 34.5279C9.73413 33.8712 10.1591 33.3305 10.8543 33.3305C11.5109 33.3305 11.9746 33.8327 11.9746 34.5279C11.9746 35.1846 11.5109 35.7253 10.8543 35.7253C10.1591 35.6866 9.73413 35.1846 9.73413 34.5279Z" fill="white"/>
<path d="M17.1888 14.4465C17.1888 10.0045 19.2746 6.06458 22.4805 3.51517C20.1244 1.66114 17.1503 0.541016 13.9057 0.541016C6.21876 0.541016 0 6.75977 0 14.4465C0 22.1331 6.21876 28.352 13.9055 28.352C17.1501 28.352 20.1243 27.2319 22.4805 25.3777C19.2746 22.867 17.1888 18.8885 17.1888 14.4465Z" fill="#EB001B"/>
<path d="M44.9995 14.4465C44.9995 22.1331 38.7808 28.352 31.094 28.352C27.8494 28.352 24.8752 27.2319 22.519 25.3777C25.7636 22.8285 27.8109 18.8885 27.8109 14.4465C27.8109 10.0045 25.7249 6.06458 22.519 3.51517C24.8751 1.66114 27.8494 0.541016 31.094 0.541016C38.7808 0.541016 44.9997 6.79848 44.9997 14.4465H44.9995Z" fill="#F79E1B"/>
</svg>
