<svg width="18" height="19" viewBox="0 0 18 19" fill="none" xmlns="http://www.w3.org/2000/svg">
<g clip-path="url(#clip0_1401_23855)">
<path d="M2.24401 12.7564C2.35429 13.0346 2.37884 13.3394 2.31451 13.6316L1.51576 16.0991C1.49003 16.2243 1.49668 16.3539 1.53509 16.4758C1.57351 16.5976 1.64241 16.7076 1.73526 16.7953C1.82812 16.8831 1.94184 16.9457 2.06566 16.9771C2.18948 17.0086 2.31928 17.0079 2.44276 16.9751L5.00251 16.2266C5.2783 16.1719 5.56391 16.1958 5.82676 16.2956C7.4283 17.0436 9.24254 17.2018 10.9494 16.7424C12.6562 16.2831 14.146 15.2356 15.1558 13.7849C16.1656 12.3342 16.6306 10.5734 16.4687 8.8133C16.3069 7.05316 15.5285 5.40674 14.2711 4.16454C13.0136 2.92233 11.3578 2.16417 9.5958 2.02381C7.83381 1.88346 6.07886 2.36993 4.64059 3.3974C3.20232 4.42486 2.17316 5.9273 1.73468 7.63962C1.2962 9.35194 1.47659 11.1641 2.24401 12.7564Z" stroke="#1F6FEB" stroke-width="1.125" stroke-linecap="round" stroke-linejoin="round"/>
<path d="M6 9.5H6.0075" stroke="#1F6FEB" stroke-width="2.25" stroke-linecap="round" stroke-linejoin="round"/>
<path d="M9 9.5H9.0075" stroke="#1F6FEB" stroke-width="2.25" stroke-linecap="round" stroke-linejoin="round"/>
<path d="M12 9.5H12.0075" stroke="#1F6FEB" stroke-width="2.25" stroke-linecap="round" stroke-linejoin="round"/>
</g>
<defs>
<clipPath id="clip0_1401_23855">
<rect width="18" height="18" fill="white" transform="translate(0 0.5)"/>
</clipPath>
</defs>
</svg>
