<svg width="52" height="52" viewBox="0 0 52 52" fill="none" xmlns="http://www.w3.org/2000/svg">
<rect width="52" height="52" rx="12" fill="#EBF2FD"/>
<g clip-path="url(#clip0_336_47771)">
<path d="M39.3344 30.6425C39.0958 30.3286 38.7761 30.0857 38.4097 29.94C37.7698 29.6866 37.0753 29.7393 36.4915 30.0764L32.6365 32.3021C32.6143 32.6353 32.55 32.9643 32.445 33.2812C31.7824 35.2803 29.6429 36.3879 27.6086 35.8428L23.798 34.8218C23.3291 34.6961 23.0508 34.2142 23.1765 33.7453C23.3021 33.2765 23.784 32.9982 24.2529 33.1238L28.1217 34.1605C29.2939 34.4745 30.4987 33.779 30.8128 32.6068C31.1269 31.4346 30.4312 30.2298 29.2591 29.9157L23.3525 28.333C22.2186 28.0292 21.0344 28.1851 20.0178 28.772L12.6525 33.0245C12.2321 33.2671 12.0881 33.8047 12.3308 34.225L15.9886 40.5605C16.0463 40.6605 16.1231 40.7481 16.2147 40.8184C16.3062 40.8887 16.4107 40.9402 16.5222 40.9701C16.6337 41 16.75 41.0076 16.8644 40.9925C16.9789 40.9774 17.0892 40.94 17.1892 40.8822L20.5108 38.9645L27.616 39.4228C28.4819 39.4794 29.345 39.2777 30.0961 38.8431L38.6887 33.8822C39.8193 33.2294 40.1505 31.7166 39.3344 30.6425ZM20.1405 25.0625H31.8592C32.3446 25.0625 32.7381 24.669 32.7381 24.1836C32.7381 21.8508 31.5463 19.7913 29.7398 18.5813C28.7665 19.5106 27.4486 20.082 25.9999 20.082C24.5511 20.082 23.2332 19.5106 22.2599 18.5813C20.4534 19.7913 19.2616 21.8508 19.2616 24.1836C19.2616 24.669 19.6551 25.0625 20.1405 25.0625Z" fill="#1F6FEB"/>
<path d="M26 18.3242C28.0225 18.3242 29.6621 16.6846 29.6621 14.6621C29.6621 12.6396 28.0225 11 26 11C23.9775 11 22.3379 12.6396 22.3379 14.6621C22.3379 16.6846 23.9775 18.3242 26 18.3242Z" fill="#1F6FEB"/>
</g>
<defs>
<clipPath id="clip0_336_47771">
<rect width="30" height="30" fill="white" transform="translate(11 11)"/>
</clipPath>
</defs>
</svg>
