<svg width="24" height="24" viewBox="0 0 24 24" fill="none" xmlns="http://www.w3.org/2000/svg">
<path fill-rule="evenodd" clip-rule="evenodd" d="M6.63359 1H13.9889L20.2228 7.49776V20.1359C20.2228 21.7191 18.9419 23 17.3642 23H6.63359C5.05039 23 3.76953 21.7191 3.76953 20.1359V3.86406C3.7695 2.28086 5.05036 1 6.63359 1Z" fill="#E5252A"/>
<path opacity="0.302" fill-rule="evenodd" clip-rule="evenodd" d="M13.9834 1V7.44828H20.2228L13.9834 1Z" fill="white"/>
<path d="M6.95215 17.415V13.3965H8.6618C9.08509 13.3965 9.42043 13.5119 9.6733 13.7483C9.92617 13.9792 10.0526 14.2925 10.0526 14.6828C10.0526 15.0731 9.92617 15.3865 9.6733 15.6174C9.42043 15.8538 9.08509 15.9692 8.6618 15.9692H7.98013V17.415H6.95215ZM7.98013 15.0952H8.54636C8.70027 15.0952 8.82121 15.0622 8.90369 14.9852C8.98613 14.9138 9.03014 14.8148 9.03014 14.6829C9.03014 14.5509 8.98616 14.452 8.90369 14.3805C8.82124 14.3036 8.7003 14.2706 8.54636 14.2706H7.98013V15.0952ZM10.4759 17.415V13.3965H11.8997C12.18 13.3965 12.4439 13.435 12.6913 13.5174C12.9386 13.5999 13.164 13.7153 13.3619 13.8748C13.5598 14.0287 13.7193 14.2376 13.8347 14.5014C13.9446 14.7653 14.0051 15.0677 14.0051 15.4085C14.0051 15.7438 13.9447 16.0462 13.8347 16.31C13.7193 16.5739 13.5598 16.7828 13.3619 16.9367C13.164 17.0961 12.9386 17.2116 12.6913 17.294C12.4439 17.3765 12.18 17.415 11.8997 17.415H10.4759ZM11.4819 16.5409H11.7787C11.9381 16.5409 12.0866 16.5244 12.224 16.4859C12.3559 16.4475 12.4824 16.387 12.6033 16.3045C12.7188 16.2221 12.8122 16.1066 12.8782 15.9527C12.9441 15.7988 12.9771 15.6174 12.9771 15.4085C12.9771 15.1941 12.9441 15.0127 12.8782 14.8588C12.8122 14.7049 12.7188 14.5894 12.6033 14.5069C12.4824 14.4245 12.356 14.364 12.224 14.3255C12.0866 14.2871 11.9381 14.2706 11.7787 14.2706H11.4819V16.5409ZM14.5219 17.415V13.3965H17.3804V14.2706H15.5499V14.9137H17.0121V15.7823H15.5499V17.415H14.5219Z" fill="white"/>
</svg>
