<svg width="52" height="52" viewBox="0 0 52 52" fill="none" xmlns="http://www.w3.org/2000/svg">
<rect width="52" height="52" rx="12" fill="#EBF2FD"/>
<path d="M39.925 26.442C39.6443 27.433 39.0829 28.2918 38.3454 28.8595C37.7565 29.3136 37.0878 29.5511 36.4301 29.5511C36.1824 29.5511 35.9402 29.518 35.7008 29.4503C34.8312 29.2016 34.1267 28.5109 33.769 27.5548C33.4415 26.6833 33.4195 25.6579 33.7002 24.6666C33.9836 23.6756 34.545 22.8167 35.2797 22.249C36.0889 21.6254 37.052 21.4099 37.9244 21.6582C38.794 21.907 39.5012 22.5977 39.859 23.5538C40.1837 24.4253 40.2084 25.4507 39.925 26.442ZM21.5254 23.9371C22.5602 23.9371 23.5482 23.3612 24.2361 22.3562C24.8608 21.445 25.2048 20.2515 25.2048 18.9949C25.2048 17.7373 24.8608 16.5438 24.2361 15.6326C23.5481 14.6279 22.5602 14.0518 21.5254 14.0518C20.4879 14.0518 19.5 14.6278 18.812 15.6326C18.1901 16.5438 17.8461 17.7373 17.8461 18.9949C17.8461 20.2515 18.1901 21.445 18.812 22.3562C19.5 23.3612 20.488 23.9371 21.5254 23.9371ZM30.4748 23.9371C31.5123 23.9371 32.5002 23.3612 33.1882 22.3562C33.8102 21.445 34.1542 20.2515 34.1542 18.9949C34.1542 17.7373 33.8102 16.5438 33.1882 15.6326C32.5002 14.6279 31.5123 14.0518 30.4748 14.0518C29.4401 14.0518 28.4521 14.6278 27.7642 15.6326C27.1395 16.5438 26.7955 17.7373 26.7955 18.9949C26.7955 20.2515 27.1395 21.445 27.7642 22.3562C28.4521 23.3612 29.4401 23.9371 30.4748 23.9371ZM18.3002 24.6672C18.0167 23.6757 17.4553 22.8168 16.7205 22.2491C15.9115 21.6255 14.9483 21.41 14.0759 21.6583C13.2036 21.907 12.499 22.5977 12.1412 23.5538C11.8165 24.4253 11.7918 25.4507 12.0752 26.442C12.3559 27.433 12.9173 28.2919 13.6548 28.8596C14.2437 29.3136 14.9124 29.5511 15.5702 29.5511C15.8151 29.5511 16.06 29.5181 16.2967 29.4504C17.169 29.2016 17.8735 28.5109 18.2312 27.5548C18.5588 26.6833 18.5809 25.6579 18.3002 24.6672ZM31.3994 27.0837C29.8913 25.4986 27.976 24.6263 26.0001 24.6263C24.0242 24.6263 22.1061 25.4986 20.6035 27.0837C19.167 28.5954 18.1653 30.6929 17.78 32.991C17.5351 34.457 17.9809 35.8679 19.0074 36.8617C20.0751 37.8959 21.4704 38.2099 22.8354 37.7244C23.8453 37.3639 24.9103 37.1812 26.0001 37.1812C27.0899 37.1812 28.1549 37.364 29.1649 37.7244C29.586 37.8741 30.0098 37.9481 30.4253 37.9481C31.3582 37.9481 32.2526 37.5772 32.9901 36.8617C34.0193 35.868 34.4651 34.4571 34.2202 32.991C33.8349 30.6929 32.8332 28.5953 31.3994 27.0837Z" fill="#1F6FEB"/>
</svg>
