<svg width="18" height="19" viewBox="0 0 18 19" fill="none" xmlns="http://www.w3.org/2000/svg">
<path d="M15.5418 12.7123V14.6732C15.5425 14.8552 15.5052 15.0354 15.4323 15.2022C15.3594 15.369 15.2524 15.5187 15.1183 15.6418C14.9841 15.7649 14.8258 15.8585 14.6533 15.9169C14.4809 15.9752 14.2981 15.9968 14.1168 15.9805C12.1055 15.7619 10.1735 15.0746 8.47596 13.9738C6.89666 12.9702 5.5577 11.6313 4.55414 10.052C3.44948 8.34678 2.76203 6.40534 2.54748 4.38495C2.53115 4.2042 2.55263 4.02203 2.61056 3.85003C2.66849 3.67804 2.76159 3.51999 2.88395 3.38595C3.00631 3.25191 3.15523 3.14481 3.32125 3.07148C3.48726 2.99815 3.66673 2.9602 3.84822 2.96002H5.80913C6.12634 2.9569 6.43387 3.06923 6.67439 3.27608C6.9149 3.48292 7.072 3.77017 7.1164 4.08428C7.19916 4.71181 7.35266 5.32797 7.57394 5.921C7.66189 6.15495 7.68092 6.40921 7.62879 6.65365C7.57666 6.89808 7.45555 7.12245 7.27981 7.30017L6.44969 8.13029C7.38018 9.7667 8.7351 11.1216 10.3715 12.0521L11.2016 11.222C11.3793 11.0463 11.6037 10.9251 11.8482 10.873C12.0926 10.8209 12.3468 10.8399 12.5808 10.9279C13.1738 11.1491 13.79 11.3026 14.4175 11.3854C14.735 11.4302 15.025 11.5901 15.2323 11.8348C15.4396 12.0794 15.5497 12.3917 15.5418 12.7123Z" stroke="#374151" stroke-width="1.13" stroke-linecap="round" stroke-linejoin="round"/>
</svg>
