<svg width="42" height="42" viewBox="0 0 42 42" fill="none" xmlns="http://www.w3.org/2000/svg">
<path d="M11 21C11 17.2288 11 15.3431 12.1716 14.1716C13.3431 13 15.2288 13 19 13H23C26.7712 13 28.6569 13 29.8284 14.1716C31 15.3431 31 17.2288 31 21V23C31 26.7712 31 28.6569 29.8284 29.8284C28.6569 31 26.7712 31 23 31H19C15.2288 31 13.3431 31 12.1716 29.8284C11 28.6569 11 26.7712 11 23V21Z" stroke="#111827" stroke-width="1.5"/>
<path d="M16 13V11.5" stroke="#111827" stroke-width="1.5" stroke-linecap="round"/>
<path d="M26 13V11.5" stroke="#111827" stroke-width="1.5" stroke-linecap="round"/>
<path d="M11.5 18H30.5" stroke="#111827" stroke-width="1.5" stroke-linecap="round"/>
<path d="M27 26C27 26.5523 26.5523 27 26 27C25.4477 27 25 26.5523 25 26C25 25.4477 25.4477 25 26 25C26.5523 25 27 25.4477 27 26Z" fill="#111827"/>
<path d="M27 22C27 22.5523 26.5523 23 26 23C25.4477 23 25 22.5523 25 22C25 21.4477 25.4477 21 26 21C26.5523 21 27 21.4477 27 22Z" fill="#111827"/>
<path d="M22 26C22 26.5523 21.5523 27 21 27C20.4477 27 20 26.5523 20 26C20 25.4477 20.4477 25 21 25C21.5523 25 22 25.4477 22 26Z" fill="#111827"/>
<path d="M22 22C22 22.5523 21.5523 23 21 23C20.4477 23 20 22.5523 20 22C20 21.4477 20.4477 21 21 21C21.5523 21 22 21.4477 22 22Z" fill="#111827"/>
<path d="M17 26C17 26.5523 16.5523 27 16 27C15.4477 27 15 26.5523 15 26C15 25.4477 15.4477 25 16 25C16.5523 25 17 25.4477 17 26Z" fill="#111827"/>
<path d="M17 22C17 22.5523 16.5523 23 16 23C15.4477 23 15 22.5523 15 22C15 21.4477 15.4477 21 16 21C16.5523 21 17 21.4477 17 22Z" fill="#111827"/>
</svg>
