<svg width="47" height="46" viewBox="0 0 47 46" fill="none" xmlns="http://www.w3.org/2000/svg">
<path d="M23.4382 8.10278C23.6446 7.68477 24.2406 7.68482 24.447 8.10278L28.1111 15.5256C28.6114 16.5392 29.5786 17.242 30.697 17.4055L38.8943 18.6038C39.3553 18.6713 39.5387 19.2386 39.2048 19.5637L33.2771 25.3381C32.4664 26.1278 32.0957 27.2656 32.2869 28.3811L33.6863 36.5364C33.7651 36.9959 33.2825 37.3461 32.8699 37.1292L25.5427 33.2766C24.5411 32.7499 23.3442 32.7499 22.3425 33.2766L15.0164 37.1292C14.6037 37.3462 14.1211 36.9959 14.2 36.5364L15.5984 28.3811C15.7896 27.2658 15.4197 26.1278 14.6091 25.3381L8.68042 19.5637C8.34652 19.2385 8.53075 18.6712 8.99194 18.6038L17.1892 17.4055C18.3075 17.242 19.2739 16.5391 19.7742 15.5256L23.4382 8.10278Z" stroke="#E5E7EB" stroke-width="2.875" stroke-linecap="round" stroke-linejoin="round"/>
</svg>
