<svg width="52" height="52" viewBox="0 0 52 52" fill="none" xmlns="http://www.w3.org/2000/svg">
<rect width="52" height="52" rx="12" fill="#EBF2FD"/>
<path d="M35 28.1623H34.9333C33.8781 28.1469 32.8706 27.7202 32.1253 26.9732C32.0826 26.9305 32.0399 26.8853 32 26.8398C31.6195 27.257 31.1562 27.5901 30.6396 27.8179C30.123 28.0457 29.5645 28.1631 29 28.1626C28.4659 28.1642 27.9369 28.06 27.4435 27.8558C26.95 27.6516 26.502 27.3516 26.1253 26.9732C26.0826 26.9305 26.0399 26.8853 25.9972 26.8398C25.6172 27.2567 25.1543 27.5897 24.6382 27.8175C24.1221 28.0453 23.5641 28.1628 23 28.1626C21.9172 28.1626 20.8986 27.7412 20.128 26.9732C20.0826 26.9305 20.0399 26.8853 19.9972 26.8398C19.2532 27.6507 18.1866 28.1626 17 28.1626C16.5705 28.1626 16.1546 28.0986 15.752 27.968V36.2771C15.7518 36.4522 15.7862 36.6257 15.8531 36.7875C15.9201 36.9494 16.0183 37.0965 16.1421 37.2203C16.266 37.3442 16.413 37.4424 16.5749 37.5093C16.7367 37.5763 16.9102 37.6106 17.0853 37.6105H18.7173V30.3971C18.7176 30.185 18.802 29.9818 18.9519 29.8318C19.1018 29.6819 19.3051 29.5975 19.5172 29.5973H24.2987C24.5108 29.5975 24.7141 29.6819 24.864 29.8318C25.0139 29.9818 25.0983 30.185 25.0986 30.3971V37.6107H34.9146C35.0897 37.6109 35.2631 37.5765 35.425 37.5096C35.5868 37.4427 35.7338 37.3445 35.8577 37.2206C35.9815 37.0968 36.0798 36.9498 36.1467 36.788C36.2137 36.6262 36.2481 36.4527 36.248 36.2776V27.9546C35.8464 28.0929 35.4246 28.1629 35 28.1623ZM33.2826 33.2319C33.282 33.4438 33.1975 33.647 33.0476 33.7969C32.8978 33.9468 32.6947 34.0313 32.4827 34.032H28.448C28.2358 34.0317 28.0324 33.9474 27.8824 33.7974C27.7324 33.6474 27.6481 33.444 27.6479 33.2319V30.3973C27.6477 30.2922 27.6683 30.1881 27.7085 30.091C27.7487 29.9939 27.8076 29.9056 27.8819 29.8313C27.9562 29.757 28.0445 29.698 28.1416 29.6579C28.2387 29.6177 28.3428 29.5971 28.448 29.5973H32.4825C32.6946 29.5975 32.8979 29.6818 33.0479 29.8317C33.1979 29.9817 33.2823 30.185 33.2826 30.3971V33.2319Z" fill="#1F6FEB"/>
<path d="M38 21.5332V23.9918C38 25.2052 37.28 26.3011 36.248 26.8051C35.8451 27.0033 35.4009 27.1028 34.952 27.0957C34.1735 27.0842 33.4301 26.7695 32.8799 26.2185C32.6009 25.9401 32.3798 25.6092 32.2293 25.2449C32.0787 24.8806 32.0018 24.4901 32.0028 24.0959C32.0028 25.7519 30.656 27.0959 29 27.0959C28.2042 27.0962 27.4408 26.7806 26.8774 26.2185C26.5989 25.9397 26.378 25.6087 26.2275 25.2445C26.0769 24.8803 25.9996 24.49 26 24.0959C26 25.7519 24.6585 27.0959 23 27.0959C22.1734 27.0959 21.4241 26.7599 20.8799 26.2185C20.6001 25.9404 20.3781 25.6096 20.2266 25.2453C20.0752 24.8811 19.9972 24.4904 19.9972 24.0959C19.9972 25.7519 18.656 27.0959 17 27.0959C16.5546 27.0959 16.1335 26.9999 15.752 26.8266C15.4272 26.6765 15.1312 26.4707 14.8774 26.2185C14.5989 25.9397 14.378 25.6087 14.2275 25.2445C14.0769 24.8803 13.9996 24.49 14 24.0959V21.5332C14 20.7119 14.216 19.9065 14.6265 19.1946L16.8881 15.272C17.1123 14.885 17.4343 14.5638 17.8219 14.3405C18.2094 14.1173 18.6488 13.9998 19.0961 14H32.9039C33.8159 14 34.6559 14.4851 35.1119 15.272L37.3732 19.1946C37.7838 19.9056 37.9999 20.7122 38 21.5332Z" fill="#1F6FEB"/>
</svg>
