<svg width="44" height="44" viewBox="0 0 44 44" fill="none" xmlns="http://www.w3.org/2000/svg">
<rect width="44" height="44" rx="22" fill="#EBF2FD"/>
<path d="M17.9465 12.9433C17.9465 12.5484 17.6264 12.2283 17.2315 12.2283C16.8366 12.2283 16.5165 12.5484 16.5165 12.9433V14.4488C15.1443 14.5587 14.2435 14.8284 13.5817 15.4902C12.9199 16.152 12.6503 17.0528 12.5404 18.4249H31.4559C31.3461 17.0528 31.0764 16.152 30.4146 15.4902C29.7528 14.8284 28.852 14.5587 27.4798 14.4488V12.9433C27.4798 12.5484 27.1597 12.2283 26.7648 12.2283C26.37 12.2283 26.0498 12.5484 26.0498 12.9433V14.3856C25.4156 14.3733 24.7047 14.3733 23.9048 14.3733H20.0915C19.2916 14.3733 18.5807 14.3733 17.9465 14.3856V12.9433Z" fill="#1F6FEB"/>
<path fill-rule="evenodd" clip-rule="evenodd" d="M12.4648 21.9999C12.4648 21.2001 12.4648 20.4892 12.4771 19.8549H31.5192C31.5315 20.4892 31.5315 21.2001 31.5315 21.9999V23.9066C31.5315 27.5019 31.5315 29.2995 30.4146 30.4164C29.2977 31.5333 27.5001 31.5333 23.9048 31.5333H20.0915C16.4963 31.5333 14.6986 31.5333 13.5817 30.4164C12.4648 29.2995 12.4648 27.5019 12.4648 23.9066V21.9999ZM26.7648 23.9066C27.2914 23.9066 27.7182 23.4798 27.7182 22.9533C27.7182 22.4268 27.2914 21.9999 26.7648 21.9999C26.2383 21.9999 25.8115 22.4268 25.8115 22.9533C25.8115 23.4798 26.2383 23.9066 26.7648 23.9066ZM26.7648 27.7199C27.2914 27.7199 27.7182 27.2931 27.7182 26.7666C27.7182 26.2401 27.2914 25.8133 26.7648 25.8133C26.2383 25.8133 25.8115 26.2401 25.8115 26.7666C25.8115 27.2931 26.2383 27.7199 26.7648 27.7199ZM22.9515 22.9533C22.9515 23.4798 22.5247 23.9066 21.9982 23.9066C21.4717 23.9066 21.0448 23.4798 21.0448 22.9533C21.0448 22.4268 21.4717 21.9999 21.9982 21.9999C22.5247 21.9999 22.9515 22.4268 22.9515 22.9533ZM22.9515 26.7666C22.9515 27.2931 22.5247 27.7199 21.9982 27.7199C21.4717 27.7199 21.0448 27.2931 21.0448 26.7666C21.0448 26.2401 21.4717 25.8133 21.9982 25.8133C22.5247 25.8133 22.9515 26.2401 22.9515 26.7666ZM17.2315 23.9066C17.758 23.9066 18.1848 23.4798 18.1848 22.9533C18.1848 22.4268 17.758 21.9999 17.2315 21.9999C16.705 21.9999 16.2782 22.4268 16.2782 22.9533C16.2782 23.4798 16.705 23.9066 17.2315 23.9066ZM17.2315 27.7199C17.758 27.7199 18.1848 27.2931 18.1848 26.7666C18.1848 26.2401 17.758 25.8133 17.2315 25.8133C16.705 25.8133 16.2782 26.2401 16.2782 26.7666C16.2782 27.2931 16.705 27.7199 17.2315 27.7199Z" fill="#1F6FEB"/>
</svg>
