<svg width="56" height="56" viewBox="0 0 56 56" fill="none" xmlns="http://www.w3.org/2000/svg">
<path d="M35.7413 32.2818L37.7438 26.2742C39.4932 21.0261 40.3679 18.402 38.9827 17.0169C37.5976 15.6317 34.9735 16.5064 29.7254 18.2558L23.7179 20.2583C19.4821 21.6702 17.3642 22.3762 16.7624 23.4114C16.1899 24.3962 16.1899 25.6126 16.7624 26.5974C17.3642 27.6326 19.4821 28.3386 23.7179 29.7505C24.2428 29.9255 24.8334 29.8005 25.2264 29.4111L31.6497 23.0474C32.011 22.6893 32.5942 22.6921 32.9522 23.0534C33.3102 23.4148 33.3075 23.998 32.9462 24.356L26.6266 30.6169C26.1934 31.0462 26.0562 31.7032 26.2491 32.2817C27.661 36.5175 28.367 38.6353 29.4022 39.2372C30.387 39.8097 31.6034 39.8097 32.5882 39.2372C33.6234 38.6353 34.3294 36.5175 35.7413 32.2818Z" fill="#1F6FEB"/>
</svg>
