<svg width="42" height="42" viewBox="0 0 42 42" fill="none" xmlns="http://www.w3.org/2000/svg">
<path d="M19.654 12.7371C20.2035 11.6197 21.7965 11.6197 22.346 12.7371L24.051 16.204C24.2689 16.647 24.6908 16.9545 25.1793 17.0261L29.0036 17.5872C30.2317 17.7674 30.722 19.2762 29.8345 20.1439L27.0625 22.8539C26.7102 23.1983 26.5495 23.6936 26.6325 24.1791L27.2854 28.0002C27.4949 29.2264 26.2067 30.1601 25.1066 29.5794L21.7002 27.7813C21.2621 27.55 20.7379 27.55 20.2998 27.7813L16.8934 29.5794C15.7933 30.1601 14.5051 29.2264 14.7146 28.0002L15.3675 24.1791C15.4505 23.6936 15.2898 23.1983 14.9375 22.8539L12.1655 20.1439C11.278 19.2762 11.7683 17.7674 12.9964 17.5872L16.8207 17.0261C17.3092 16.9545 17.7311 16.647 17.949 16.204L19.654 12.7371Z" stroke="#111827" stroke-width="1.5" stroke-linecap="round" stroke-linejoin="round"/>
</svg>
