<svg width="20" height="21" viewBox="0 0 20 21" fill="none" xmlns="http://www.w3.org/2000/svg">
<path d="M2.5 5.5H4.16667H17.5" stroke="#EF4444" stroke-width="1.25" stroke-linecap="round" stroke-linejoin="round"/>
<path d="M15.8333 5.49984V17.1665C15.8333 17.6085 15.6577 18.0325 15.3451 18.345C15.0326 18.6576 14.6087 18.8332 14.1666 18.8332H5.83329C5.39127 18.8332 4.96734 18.6576 4.65478 18.345C4.34222 18.0325 4.16663 17.6085 4.16663 17.1665V5.49984M6.66663 5.49984V3.83317C6.66663 3.39114 6.84222 2.96722 7.15478 2.65466C7.46734 2.3421 7.89127 2.1665 8.33329 2.1665H11.6666C12.1087 2.1665 12.5326 2.3421 12.8451 2.65466C13.1577 2.96722 13.3333 3.39114 13.3333 3.83317V5.49984" stroke="#EF4444" stroke-width="1.25" stroke-linecap="round" stroke-linejoin="round"/>
<path d="M8.33337 9.6665V14.6665" stroke="#EF4444" stroke-width="1.25" stroke-linecap="round" stroke-linejoin="round"/>
<path d="M11.6666 9.6665V14.6665" stroke="#EF4444" stroke-width="1.25" stroke-linecap="round" stroke-linejoin="round"/>
</svg>
