<svg width="45" height="44" viewBox="0 0 45 44" fill="none" xmlns="http://www.w3.org/2000/svg">
<rect x="0.5" width="44" height="44" rx="22" fill="#EBF2FD"/>
<path d="M32.0335 22.0001C32.0335 27.2652 27.7652 31.5335 22.5001 31.5335C17.235 31.5335 12.9668 27.2652 12.9668 22.0001C12.9668 16.735 17.235 12.4668 22.5001 12.4668C27.7652 12.4668 32.0335 16.735 32.0335 22.0001Z" fill="#1F6FEB"/>
<path fill-rule="evenodd" clip-rule="evenodd" d="M22.5001 17.4718C22.895 17.4718 23.2151 17.7919 23.2151 18.1868V21.704L25.389 23.8779C25.6683 24.1571 25.6683 24.6098 25.389 24.889C25.1098 25.1683 24.6571 25.1683 24.3779 24.889L21.9945 22.5057C21.8605 22.3716 21.7851 22.1898 21.7851 22.0001V18.1868C21.7851 17.7919 22.1052 17.4718 22.5001 17.4718Z" fill="white"/>
</svg>
