<svg width="16" height="17" viewBox="0 0 16 17" fill="none" xmlns="http://www.w3.org/2000/svg">
<path d="M10.6667 14.5V13.1667C10.6667 12.4594 10.3857 11.7811 9.88564 11.281C9.38554 10.781 8.70726 10.5 8.00002 10.5H3.33335C2.62611 10.5 1.94783 10.781 1.44774 11.281C0.947639 11.7811 0.666687 12.4594 0.666687 13.1667V14.5" stroke="#111827" stroke-linecap="round" stroke-linejoin="round"/>
<path d="M5.66667 7.83333C7.13943 7.83333 8.33333 6.63943 8.33333 5.16667C8.33333 3.69391 7.13943 2.5 5.66667 2.5C4.19391 2.5 3 3.69391 3 5.16667C3 6.63943 4.19391 7.83333 5.66667 7.83333Z" stroke="#111827" stroke-linecap="round" stroke-linejoin="round"/>
<path d="M11.3333 7.83333L12.6666 9.16667L15.3333 6.5" stroke="#111827" stroke-linecap="round" stroke-linejoin="round"/>
</svg>
