<svg width="42" height="42" viewBox="0 0 42 42" fill="none" xmlns="http://www.w3.org/2000/svg">
<path d="M15 17H19" stroke="#111827" stroke-width="1.5" stroke-linecap="round" stroke-linejoin="round"/>
<path d="M29.8333 18H27.2308C25.4465 18 24 19.3431 24 21C24 22.6569 25.4465 24 27.2308 24H29.8333C29.9167 24 29.9583 24 29.9935 23.9979C30.5328 23.965 30.9623 23.5662 30.9977 23.0654C31 23.0327 31 22.994 31 22.9167V19.0833C31 19.006 31 18.9673 30.9977 18.9346C30.9623 18.4338 30.5328 18.035 29.9935 18.0021C29.9583 18 29.9167 18 29.8333 18Z" stroke="#111827" stroke-width="1.5"/>
<path d="M29.965 18C29.8873 16.1277 29.6366 14.9797 28.8284 14.1716C27.6569 13 25.7712 13 22 13L19 13C15.2288 13 13.3431 13 12.1716 14.1716C11 15.3431 11 17.2288 11 21C11 24.7712 11 26.6569 12.1716 27.8284C13.3431 29 15.2288 29 19 29H22C25.7712 29 27.6569 29 28.8284 27.8284C29.6366 27.0203 29.8873 25.8723 29.965 24" stroke="#111827" stroke-width="1.5"/>
<path d="M26.9912 21H27.0002" stroke="#111827" stroke-width="2" stroke-linecap="round" stroke-linejoin="round"/>
</svg>
